<?xml version="1.0" encoding="UTF-8"?>
<svg width="32px" height="32px" viewBox="0 0 32 32" version="1.1" xmlns="http://www.w3.org/2000/svg">
    <g stroke="none" stroke-width="1" fill="none" fill-rule="evenodd">
        <path d="M16,2 C23.732,2 30,8.268 30,16 C30,23.732 23.732,30 16,30 C8.268,30 2,23.732 2,16 C2,8.268 8.268,2 16,2 Z M16,4 C9.373,4 4,9.373 4,16 C4,22.627 9.373,28 16,28 C22.627,28 28,22.627 28,16 C28,9.373 22.627,4 16,4 Z M16,10 C19.314,10 22,12.686 22,16 C22,19.314 19.314,22 16,22 C12.686,22 10,19.314 10,16 C10,12.686 12.686,10 16,10 Z M16,12 C13.791,12 12,13.791 12,16 C12,18.209 13.791,20 16,20 C18.209,20 20,18.209 20,16 C20,13.791 18.209,12 16,12 Z M16,14 C17.105,14 18,14.895 18,16 C18,17.105 17.105,18 16,18 C14.895,18 14,17.105 14,16 C14,14.895 14.895,14 16,14 Z" fill="#ff5722" fill-rule="nonzero"></path>
    </g>
</svg>