<?xml version="1.0" encoding="UTF-8"?>
<svg width="32px" height="32px" viewBox="0 0 32 32" version="1.1" xmlns="http://www.w3.org/2000/svg">
    <g stroke="none" stroke-width="1" fill="none" fill-rule="evenodd">
        <path d="M16,2 C23.732,2 30,8.268 30,16 L30,16 L26,16 C26,10.477 21.523,6 16,6 C10.477,6 6,10.477 6,16 C6,21.523 10.477,26 16,26 L16,26 L16,30 C8.268,30 2,23.732 2,16 C2,8.268 8.268,2 16,2 Z M26,16 L30,16 C30,23.732 23.732,30 16,30 L16,30 L16,26 C21.523,26 26,21.523 26,16 L26,16 Z M16,11 C18.761,11 21,13.239 21,16 C21,18.761 18.761,21 16,21 C13.239,21 11,18.761 11,16 C11,13.239 13.239,11 16,11 Z M16,15 C15.448,15 15,15.448 15,16 C15,16.552 15.448,17 16,17 C16.552,17 17,16.552 17,16 C17,15.448 16.552,15 16,15 Z" fill="#ff5722" fill-rule="nonzero"></path>
    </g>
</svg>