<?xml version="1.0" encoding="UTF-8"?>
<svg width="32px" height="32px" viewBox="0 0 32 32" version="1.1" xmlns="http://www.w3.org/2000/svg">
    <g stroke="none" stroke-width="1" fill="none" fill-rule="evenodd">
        <path d="M8,2 C10.209,2 12,3.791 12,6 L12,9 L26,9 C28.209,9 30,10.791 30,13 L30,26 C30,28.209 28.209,30 26,30 L6,30 C3.791,30 2,28.209 2,26 L2,6 C2,3.791 3.791,2 6,2 L8,2 Z M8,4 L6,4 C4.895,4 4,4.895 4,6 L4,26 C4,27.105 4.895,28 6,28 L26,28 C27.105,28 28,27.105 28,26 L28,13 C28,11.895 27.105,11 26,11 L10,11 L10,6 C10,4.895 9.105,4 8,4 Z M22,14 L24,14 C24.552,14 25,14.448 25,15 C25,15.552 24.552,16 24,16 L22,16 L22,14 Z M17,14 L19,14 C19.552,14 20,14.448 20,15 C20,15.552 19.552,16 19,16 L17,16 L17,14 Z M12,14 L14,14 C14.552,14 15,14.448 15,15 C15,15.552 14.552,16 14,16 L12,16 L12,14 Z M22,19 L24,19 C24.552,19 25,19.448 25,20 C25,20.552 24.552,21 24,21 L22,21 L22,19 Z M17,19 L19,19 C19.552,19 20,19.448 20,20 C20,20.552 19.552,21 19,21 L17,21 L17,19 Z M12,19 L14,19 C14.552,19 15,19.448 15,20 C15,20.552 14.552,21 14,21 L12,21 L12,19 Z M22,24 L24,24 C24.552,24 25,24.448 25,25 C25,25.552 24.552,26 24,26 L22,26 L22,24 Z M17,24 L19,24 C19.552,24 20,24.448 20,25 C20,25.552 19.552,26 19,26 L17,26 L17,24 Z M12,24 L14,24 C14.552,24 15,24.448 15,25 C15,25.552 14.552,26 14,26 L12,26 L12,24 Z" fill="#ff5722" fill-rule="nonzero"></path>
    </g>
</svg>