<?xml version="1.0" encoding="UTF-8"?>
<svg width="32px" height="32px" viewBox="0 0 32 32" version="1.1" xmlns="http://www.w3.org/2000/svg">
    <g stroke="none" stroke-width="1" fill="none" fill-rule="evenodd">
        <path d="M5,2 L7,2 C7.552,2 8,2.448 8,3 L8,5 L10,5 C10.552,5 11,5.448 11,6 C11,6.552 10.552,7 10,7 L8,7 L8,9 C8,9.552 7.552,10 7,10 C6.448,10 6,9.552 6,9 L6,7 L4,7 C3.448,7 3,6.552 3,6 C3,5.448 3.448,5 4,5 L6,5 L6,3 C6,2.448 6.448,2 7,2 Z M16,8 C17.333,8 18.333,9 19,11 L30,11 C31.105,11 32,11.895 32,13 L32,29 C32,30.105 31.105,31 30,31 L7,31 C5.895,31 5,30.105 5,29 L5,22 C5,20.895 5.895,20 7,20 L13,20 C13.667,18 14.667,17 16,17 C17.333,17 18.333,18 19,20 L30,20 L30,13 L19,13 C18.333,15 17.333,16 16,16 C14.667,16 13.667,15 13,13 L2,13 C0.895,13 7.66053887e-16,12.105 0,11 L0,2 C-1.3527075e-16,0.8954305 0.8954305,2.02906125e-16 2,0 L13,0 C14.1045695,-2.02906125e-16 15,0.8954305 15,2 L15,11 C15,12.105 14.1045695,13 13,13 L13,13 C13.667,15 14.667,16 16,16 C17.333,16 18.333,15 19,13 L19,13 C17.333,13 16.333,12 16,10 C15.667,8 14.667,7 13,7 L13,2 L2,2 L2,11 L13,11 C13.667,9 14.667,8 16,8 Z M16,17 C14.667,17 13.667,18 13,20 L7,20 L7,29 L13,29 C13.667,27 14.667,26 16,26 C17.333,26 18.333,27 19,29 L30,29 L30,22 L19,22 C18.333,24 17.333,25 16,25 C14.667,25 13.667,24 13,22 L13,22 C13.667,24 14.667,25 16,25 C17.333,25 18.333,24 19,22 L19,22 C17.333,22 16.333,21 16,19 C15.667,17 14.667,16 13,16 L13,16 C13.667,18 14.667,19 16,19 C17.333,19 18.333,18 19,16 L19,16 C17.333,16 16.333,17 16,19 C16.333,21 17.333,22 19,22 L19,22 C18.333,20 17.333,19 16,19 C14.667,19 13.667,20 13,22 L13,22 C13.667,20 14.667,19 16,19 C16.333,17 15.667,16 14,16 L13,16 C14.3333333,16 15.3333333,17 16,19 C16.6666667,21 17.6666667,22 19,22 L30,22 L30,20 L19,20 C18.333,18 17.333,17 16,17 Z" fill="#ff5722" fill-rule="nonzero"></path>
    </g>
</svg>