<?xml version="1.0" encoding="UTF-8"?>
<svg width="32px" height="32px" viewBox="0 0 32 32" version="1.1" xmlns="http://www.w3.org/2000/svg">
    <g stroke="none" stroke-width="1" fill="none" fill-rule="evenodd">
        <path d="M24,2 C25.105,2 26,2.895 26,4 L26,6 L28,6 C29.105,6 30,6.895 30,8 L30,24 C30,25.105 29.105,26 28,26 L26,26 L26,28 C26,29.105 25.105,30 24,30 L4,30 C2.895,30 2,29.105 2,28 L2,4 C2,2.895 2.895,2 4,2 L24,2 Z M24,4 L4,4 L4,28 L24,28 L24,26 L8,26 C6.895,26 6,25.105 6,24 L6,8 C6,6.895 6.895,6 8,6 L24,6 L24,4 Z M28,8 L8,8 L8,24 L28,24 L28,8 Z M22,14 C22.552,14 23,14.448 23,15 C23,15.552 22.552,16 22,16 L13,16 C12.448,16 12,15.552 12,15 C12,14.448 12.448,14 13,14 L22,14 Z M18,18 C18.552,18 19,18.448 19,19 C19,19.552 18.552,20 18,20 L13,20 C12.448,20 12,19.552 12,19 C12,18.448 12.448,18 13,18 L18,18 Z M22,10 C22.552,10 23,10.448 23,11 C23,11.552 22.552,12 22,12 L13,12 C12.448,12 12,11.552 12,11 C12,10.448 12.448,10 13,10 L22,10 Z" fill="#ff5722" fill-rule="nonzero"></path>
    </g>
</svg>